<?xml version="1.0" standalone="no"?>
<!DOCTYPE svg PUBLIC "-//W3C//DTD SVG 20010904//EN"
 "http://www.w3.org/TR/2001/REC-SVG-20010904/DTD/svg10.dtd">
<svg version="1.0" xmlns="http://www.w3.org/2000/svg"
 width="700.000000pt" height="700.000000pt" viewBox="0 0 700.000000 700.000000"
 preserveAspectRatio="xMidYMid meet">
<metadata>
Created by potrace 1.14, written by Peter Selinger 2001-2017
</metadata>
<g transform="translate(0.000000,700.000000) scale(0.100000,-0.100000)"
fill="#000000" stroke="none">
<path d="M3278 6995 c-2 -1 -41 -5 -88 -9 -47 -4 -98 -9 -115 -11 -16 -2 -48
-6 -70 -9 -62 -9 -105 -16 -160 -27 -27 -5 -59 -11 -70 -13 -239 -47 -561
-159 -815 -285 -125 -61 -380 -207 -380 -216 0 -3 12 0 28 6 102 41 171 53
312 55 165 3 257 -9 468 -62 122 -30 331 -95 397 -123 11 -5 56 -23 100 -41
179 -73 427 -191 572 -272 38 -21 45 -22 65 -9 49 30 378 192 483 236 305 131
605 223 850 261 22 3 108 8 190 9 129 3 162 0 235 -19 47 -13 94 -26 105 -31
38 -17 -2 20 -45 41 -22 10 -40 22 -40 27 0 4 -5 7 -10 7 -6 0 -29 12 -52 26
-70 45 -308 159 -438 212 -242 98 -506 172 -740 207 -25 4 -54 9 -65 11 -11 2
-49 7 -85 10 -36 3 -76 8 -90 11 -26 5 -536 13 -542 8z"/>
<path d="M1140 6014 c-85 -13 -88 -15 -163 -92 -42 -42 -85 -88 -97 -102 -11
-14 -31 -36 -44 -50 -94 -102 -277 -363 -376 -535 -48 -83 -170 -328 -170
-340 0 -3 -9 -24 -20 -48 -58 -125 -156 -431 -186 -582 -1 -5 -9 -46 -18 -90
-30 -151 -36 -196 -53 -375 -10 -104 -10 -509 0 -605 4 -38 9 -97 13 -130 5
-51 42 -262 57 -330 115 -490 304 -905 594 -1303 41 -57 77 -101 80 -98 2 2 0
13 -6 24 -36 68 -54 256 -38 402 11 102 14 119 37 215 12 50 23 95 24 100 1 6
17 57 35 115 18 58 33 107 33 110 0 3 3 10 8 15 4 6 13 28 20 50 28 86 137
330 239 535 315 629 809 1384 1322 2021 l118 147 -108 103 c-314 304 -614 547
-826 671 -181 106 -395 183 -475 172z"/>
<path d="M5705 5989 c-95 -27 -268 -114 -395 -197 -229 -149 -449 -332 -756
-625 l-103 -99 103 -126 c163 -201 315 -404 516 -688 33 -47 340 -506 340
-509 0 -2 30 -52 68 -112 37 -60 73 -117 79 -128 122 -197 365 -653 456 -855
262 -586 341 -1025 232 -1305 -17 -45 128 145 200 261 105 170 258 462 280
534 4 14 11 30 15 35 25 31 137 387 176 560 9 39 24 112 29 145 4 27 13 79 20
120 2 14 7 52 11 85 4 33 9 76 11 95 8 68 10 516 3 595 -15 152 -21 210 -25
225 -2 8 -7 35 -10 60 -8 59 -40 212 -70 330 -89 350 -271 754 -479 1060 -47
69 -172 238 -185 250 -3 3 -30 34 -60 70 -30 36 -92 103 -138 150 l-83 85 -82
2 c-59 2 -103 -3 -153 -18z"/>
<path d="M3454 4160 c-120 -95 -169 -134 -274 -224 -58 -49 -121 -104 -140
-122 -19 -18 -62 -57 -95 -87 -33 -30 -76 -69 -95 -87 -171 -156 -548 -544
-714 -735 -39 -44 -75 -84 -80 -90 -6 -5 -28 -30 -48 -55 -20 -25 -49 -58 -63
-75 -15 -16 -57 -68 -93 -115 -37 -47 -69 -87 -72 -90 -3 -3 -19 -23 -35 -45
-17 -22 -32 -42 -35 -45 -14 -12 -144 -196 -217 -305 -298 -447 -435 -812
-388 -1035 28 -130 74 -184 305 -356 323 -241 682 -423 1076 -544 150 -47 364
-94 523 -116 25 -3 57 -8 71 -10 163 -25 682 -25 842 1 13 2 43 6 68 9 25 4
57 8 73 11 37 7 65 12 112 20 80 14 313 75 415 108 399 132 760 328 1099 597
126 100 172 156 197 236 16 53 22 174 11 241 -34 220 -169 507 -400 852 -49
74 -94 139 -98 145 -5 6 -55 72 -110 146 -145 193 -398 494 -555 660 -28 30
-64 69 -78 85 -103 115 -507 510 -681 666 -81 73 -255 221 -320 273 -33 26
-67 53 -75 59 -55 44 -74 57 -80 57 -4 0 -25 -14 -46 -30z"/>
</g>
</svg>
